<svg xmlns="http://www.w3.org/2000/svg" width="12" height="12" viewBox="0 0 12 12"><defs><clipPath id="f1i0a"><path fill="#fff" d="M0 12V0h12v12zm3.008-6.02a2.992 2.992 0 1 0 5.984 0 2.992 2.992 0 0 0-5.984 0z"/></clipPath></defs><g><g><path d="M6 2.988a2.992 2.992 0 1 1 0 5.984 2.992 2.992 0 0 1 0-5.984z"/><path fill="#fff" d="M6 2.988a2.992 2.992 0 1 1 0 5.984 2.992 2.992 0 0 1 0-5.984z"/><path fill="none" stroke="#283645" stroke-linecap="round" stroke-linejoin="round" stroke-miterlimit="20" stroke-width="6" d="M6 2.988a2.992 2.992 0 1 1 0 5.984 2.992 2.992 0 0 1 0-5.984z" clip-path="url(&quot;#f1i0a&quot;)"/></g></g></svg>