<svg xmlns="http://www.w3.org/2000/svg" width="74.42" height="22.86" viewBox="0 0 74.42 22.86">
	<style type="text/css">
		.st0{fill:#ffffff;}
	</style>
	<path class="st0" d="M8.11,12.42C11.84,12.42 14.29,10.43 14.29,7.47L14.29,7.4C14.29,4.18 11.88,2.51 8.24,2.51L2.54,2.51L2.54,12.42ZM0,1.44C0,0.74 0.58,0.16 1.25,0.16L8.43,0.16C13.52,0.16 16.87,2.86 16.87,7.3L16.87,7.37C16.87,12.23 12.81,14.74 8.01,14.74L2.54,14.74L2.54,21.57C2.54,22.27 1.96,22.85 1.25,22.85C0.58,22.85 0,22.27 0,21.57Z"/>
	<path class="st0" d="M21.72,1.28C21.72,0.58 22.3,0 22.98,0C23.69,0 24.27,0.58 24.27,1.28L24.27,21.57C24.27,22.27 23.69,22.85 22.98,22.85C22.3,22.85 21.72,22.27 21.72,21.57L21.72,1.28Z"/>
	<path class="st0" d="M30.87,1.32C30.87,0.64 31.44,0.06 32.12,0.06L32.48,0.06C33.06,0.06 33.41,0.35 33.76,0.8L47.45,18.25L47.45,1.25C47.45,0.58 47.99,0 48.7,0C49.38,0 49.93,0.58 49.93,1.25L49.93,21.6C49.93,22.28 49.44,22.79 48.77,22.79L48.64,22.79C48.09,22.79 47.7,22.47 47.32,22.02L33.34,4.15L33.34,21.6C33.34,22.27 32.8,22.85 32.09,22.85C31.41,22.85 30.87,22.27 30.87,21.6Z"/>
	<path class="st0" d="M56.29,1.28C56.29,0.58 56.87,0 57.55,0C58.26,0 58.84,0.58 58.84,1.28L58.84,13.61L71.68,0.45C71.97,0.19 72.26,0 72.68,0C73.36,0 73.91,0.61 73.91,1.25C73.91,1.61 73.75,1.9 73.49,2.15L65.5,10.07L74.07,20.63C74.29,20.92 74.42,21.18 74.42,21.57C74.42,22.24 73.84,22.86 73.14,22.86C72.65,22.86 72.33,22.6 72.1,22.28L63.7,11.81L58.84,16.67L58.84,21.57C58.84,22.28 58.26,22.86 57.55,22.86C56.88,22.86 56.3,22.28 56.3,21.57L56.3,1.28Z"/>
</svg>